<?xml version="1.0" encoding="UTF-8" standalone="no"?>
<!-- Created with Inkscape (http://www.inkscape.org/) -->

<svg
   xmlns:dc="http://purl.org/dc/elements/1.1/"
   xmlns:cc="http://creativecommons.org/ns#"
   xmlns:rdf="http://www.w3.org/1999/02/22-rdf-syntax-ns#"
   xmlns:svg="http://www.w3.org/2000/svg"
   xmlns="http://www.w3.org/2000/svg"
   xmlns:sodipodi="http://sodipodi.sourceforge.net/DTD/sodipodi-0.dtd"
   xmlns:inkscape="http://www.inkscape.org/namespaces/inkscape"
   width="210mm"
   height="297mm"
   viewBox="0 0 210 297"
   version="1.1"
   id="svg4636"
   sodipodi:docname="drawing.svg"
   inkscape:version="0.92.4 (f8dce91, 2019-08-02)">
  <defs
     id="defs4630" />
  <sodipodi:namedview
     id="base"
     pagecolor="#ffffff"
     bordercolor="#666666"
     borderopacity="1.0"
     inkscape:pageopacity="0.0"
     inkscape:pageshadow="2"
     inkscape:zoom="0.35"
     inkscape:cx="-110"
     inkscape:cy="560"
     inkscape:document-units="mm"
     inkscape:current-layer="layer1"
     showgrid="false"
     inkscape:window-width="1215"
     inkscape:window-height="733"
     inkscape:window-x="100"
     inkscape:window-y="100"
     inkscape:window-maximized="0"
     inkscape:snap-nodes="false" />
  <metadata
     id="metadata4633">
    <rdf:RDF>
      <cc:Work
         rdf:about="">
        <dc:format>image/svg+xml</dc:format>
        <dc:type
           rdf:resource="http://purl.org/dc/dcmitype/StillImage" />
        <dc:title></dc:title>
      </cc:Work>
    </rdf:RDF>
  </metadata>
  <g
     inkscape:label="Layer 1"
     inkscape:groupmode="layer"
     id="layer1">
    <path
       sodipodi:type="star"
       style="fill:#ffffff;fill-opacity:1;stroke:#00ff00;stroke-width:0.27781248;stroke-opacity:0"
       id="path4640"
       sodipodi:sides="10"
       sodipodi:cx="115.32957"
       sodipodi:cy="95.398201"
       sodipodi:r1="53.799622"
       sodipodi:r2="13.879823"
       sodipodi:arg1="-2.7638259"
       sodipodi:arg2="-7.7228721"
       inkscape:flatsided="false"
       inkscape:rounded="0.07"
       inkscape:randomized="0"
       d="m 65.32332,75.554447 c 3.591647,-0.663201 49.49086,8.895717 51.82081,6.083056 1.96726,-2.374813 -33.389107,-33.015632 -30.6066,-31.686171 3.295522,1.574577 34.81017,36.286784 38.34839,35.380806 2.98742,-0.764943 -7.60626,-46.335834 -6.1366,-43.624761 1.74062,3.210919 6.83318,49.817532 10.22818,51.164291 2.8665,1.137109 21.08193,-41.957324 20.67738,-38.900176 -0.47914,3.620799 -23.75385,44.319675 -21.79884,47.404758 1.65066,2.60482 41.71753,-21.552544 39.5933,-19.317049 -2.51589,2.647658 -45.26772,21.893209 -45.49945,25.538219 -0.19566,3.07758 46.41846,7.08458 43.38592,7.64454 -3.59164,0.6632 -49.49086,-8.89572 -51.82081,-6.08306 -1.96725,2.37481 33.38911,33.01563 30.6066,31.68617 -3.29552,-1.57458 -34.81017,-36.28678 -38.34839,-35.38081 -2.98741,0.76495 7.60626,46.33584 6.13661,43.62476 -1.74063,-3.21091 -6.83319,-49.817527 -10.22819,-51.164286 C 98.815137,96.787625 80.599704,139.88206 81.004255,136.82491 81.483394,133.20411 104.7581,92.505235 102.8031,89.420155 101.15243,86.815331 61.085563,110.9727 63.209798,108.7372 65.725681,106.08954 108.47751,86.843991 108.70925,83.198986 108.90491,80.121401 62.290787,76.114406 65.32332,75.554447 Z"
       inkscape:transform-center-x="5.6364126e-06"
       inkscape:transform-center-y="-4.6477668e-06" />
    <path
       sodipodi:type="star"
       style="fill:#333333;fill-opacity:1;stroke:#00ff00;stroke-width:0.27781248;stroke-opacity:0"
       id="path4642"
       sodipodi:sides="10"
       sodipodi:cx="105.80457"
       sodipodi:cy="112.86071"
       sodipodi:r1="60.543926"
       sodipodi:r2="47.224262"
       sodipodi:arg1="0.59891126"
       sodipodi:arg2="0.91307053"
       inkscape:flatsided="false"
       inkscape:rounded="0.07"
       inkscape:randomized="0"
       d="m 155.81082,146.99196 c -0.84387,1.23636 -19.95255,2.32622 -21.13717,3.2413 -1.18463,0.91508 -7.0656,19.12892 -8.47502,19.63315 -1.40941,0.50422 -17.50927,-9.84587 -19.00552,-9.80186 -1.49625,0.044 -16.959883,11.32257 -18.396503,10.90206 -1.436619,-0.4205 -8.378046,-18.25716 -9.614408,-19.10103 -1.236362,-0.84386 -20.376072,-0.80862 -21.291153,-1.99324 -0.915081,-1.18462 3.953311,-19.69485 3.449085,-21.10426 -0.504226,-1.40942 -16.009294,-12.63094 -16.053307,-14.12719 -0.04401,-1.49626 14.774636,-13.60977 15.195144,-15.046393 0.420508,-1.43662 -5.52751,-19.628673 -4.683643,-20.865036 0.843866,-1.236362 19.952553,-2.32622 21.137175,-3.241302 1.184622,-0.915081 7.065595,-19.128918 8.475013,-19.633144 1.409418,-0.504226 17.509277,9.845864 19.005527,9.801851 1.49625,-0.04401 16.95988,-11.322568 18.3965,-10.90206 1.43662,0.420508 8.37804,18.257164 9.61441,19.101031 1.23636,0.843866 20.37607,0.808619 21.29115,1.993241 0.91508,1.184621 -3.95331,19.694848 -3.44908,21.104266 0.50422,1.409417 16.00929,12.630936 16.0533,14.127196 0.044,1.49625 -14.77463,13.60976 -15.19514,15.04638 -0.42051,1.43662 5.52751,19.62868 4.68364,20.86504 z"
       inkscape:transform-center-x="-6.3091489e-06"
       inkscape:transform-center-y="-2.1974788e-06" />
    <rect
       style="fill:#f2f2f2;fill-opacity:1;stroke:#00ff00;stroke-width:0.27781248;stroke-opacity:0"
       id="rect4694"
       width="11.112496"
       height="38.10001"
       x="100.24833"
       y="89.841957" />
    <rect
       style="fill:#f2f2f2;fill-opacity:1;stroke:#00ff00;stroke-width:0.27781248;stroke-opacity:0"
       id="rect4696"
       width="10.318748"
       height="9.5249605"
       x="100.6452"
       y="134.29198" />
    <flowRoot
       xml:space="preserve"
       id="flowRoot4743"
       style="font-size:144px;line-height:1.25;fill:#000000;fill-opacity:1;stroke:#00ff00;stroke-opacity:0"
       transform="scale(0.26458333)"><flowRegion
         id="flowRegion4745"
         style="fill:#000000"><rect
           id="rect4747"
           width="145.71429"
           height="185.71422"
           x="274.28571"
           y="368.23398"
           style="fill:#000000" /></flowRegion><flowPara
         id="flowPara4749">Aaaaaa</flowPara></flowRoot>    <text
       xml:space="preserve"
       style="font-size:38.09999847px;line-height:1.25;fill:#000000;fill-opacity:1;stroke:#00ff00;stroke-width:0.26458332;stroke-opacity:0"
       x="100.54166"
       y="109.52381"
       id="text4753"><tspan
         sodipodi:role="line"
         id="tspan4751"
         x="100.54166"
         y="143.23338"
         style="stroke-width:0.26458332" /></text>
  </g>
</svg>
